<svg width="105" height="35" viewBox="0 0 105 35" fill="none" xmlns="http://www.w3.org/2000/svg">
<path fill-rule="evenodd" clip-rule="evenodd" d="M1.06427 34.3387H6.29791V13.2654H1.06427V34.3387Z" fill="#112D35"/>
<path fill-rule="evenodd" clip-rule="evenodd" d="M3.68122 0.00012207C1.64828 0.00012207 0.000335693 1.64839 0.000335693 3.68134C0.000335693 5.71428 1.64828 7.36223 3.68122 7.36223C5.71417 7.36223 7.36211 5.71428 7.36211 3.68134C7.36211 1.64839 5.71417 0.00012207 3.68122 0.00012207Z" fill="#112D35"/>
<path fill-rule="evenodd" clip-rule="evenodd" d="M23.8869 12.8253C17.9555 12.8253 13.1301 17.6507 13.1301 23.5821V34.3389H18.3637V23.5821C18.3637 20.5368 20.8415 18.059 23.8869 18.059C26.9322 18.059 29.41 20.5368 29.41 23.5821V34.3389H34.6436V23.5821C34.6436 17.6507 29.8182 12.8253 23.8869 12.8253Z" fill="#112D35"/>
<path fill-rule="evenodd" clip-rule="evenodd" d="M58.776 6.28333H53.5424V24.6995C53.5424 30.0146 57.8663 34.3389 63.1814 34.3389H67.3906V29.1053H63.1814C60.7524 29.1053 58.776 27.1289 58.776 24.6995V18.4993H65.7551V13.2657H58.776V6.28333Z" fill="#112D35"/>
<path fill-rule="evenodd" clip-rule="evenodd" d="M84.4518 29.1133C81.4938 30.1976 78.2048 28.673 77.1205 25.7147C76.0361 22.7563 77.5608 19.4676 80.5191 18.3833C83.4774 17.299 86.7664 18.8233 87.8508 21.7819C88.9351 24.7402 87.4102 28.0289 84.4518 29.1133ZM104.582 15.649C103.882 13.7394 101.767 12.7588 99.8571 13.4591C98.8202 13.8389 98.0606 14.638 97.6916 15.5931L97.6897 15.5879C97.0093 17.3477 94.1946 19.8706 90.1863 15.9251L90.1879 15.93C87.2558 13.0502 82.8163 11.9354 78.7076 13.4414C73.0245 15.5247 70.0956 21.8427 72.1786 27.5258C74.2616 33.2092 80.5799 36.1381 86.2633 34.0551C90.3717 32.5491 93.0393 28.8297 93.4161 24.7369L93.418 24.7418C93.927 19.1405 97.7054 19.2468 99.3622 20.15L99.3602 20.1451C100.259 20.6357 101.355 20.7541 102.392 20.3744C104.301 19.6744 105.282 17.5587 104.582 15.649Z" fill="#112D35"/>
<path fill-rule="evenodd" clip-rule="evenodd" d="M41.4759 34.3387H46.7095V13.2654H41.4759V34.3387Z" fill="#112D35"/>
<path fill-rule="evenodd" clip-rule="evenodd" d="M44.0926 0.00012207C42.0597 0.00012207 40.4118 1.64839 40.4118 3.68134C40.4118 5.71428 42.0597 7.36223 44.0926 7.36223C46.1256 7.36223 47.7735 5.71428 47.7735 3.68134C47.7735 1.64839 46.1256 0.00012207 44.0926 0.00012207Z" fill="#112D35"/>
</svg>
